<svg xmlns="http://www.w3.org/2000/svg" xmlns:xlink="http://www.w3.org/1999/xlink" width="500" zoomAndPan="magnify" viewBox="0 0 375 374.999991" height="500" preserveAspectRatio="xMidYMid meet" version="1.2"><defs><clipPath id="5617e301b6"><path d="M 0 61.554688 L 375 61.554688 L 375 313.554688 L 0 313.554688 Z M 0 61.554688 "/></clipPath><clipPath id="ad3fd0a70c"><path d="M 0 61.554688 L 375 61.554688 L 375 313.554688 L 0 313.554688 Z M 0 61.554688 "/></clipPath><clipPath id="a65e185292"><path d="M 1250.933594 256.140625 C 1250.933594 644.765625 935.890625 959.816406 547.269531 959.816406 C 158.648438 959.816406 -156.402344 644.765625 -156.402344 256.140625 C -156.402344 -132.480469 158.648438 -447.519531 547.269531 -447.519531 C 935.890625 -447.519531 1250.933594 -132.480469 1250.933594 256.140625 "/></clipPath><clipPath id="d0de015883"><path d="M 72.574219 87.59375 L 356.929688 87.59375 L 356.929688 296.351562 L 72.574219 296.351562 Z M 72.574219 87.59375 "/></clipPath><clipPath id="85dae9f4a2"><path d="M 350.445312 230.929688 C 341.308594 215.101562 332.15625 199.261719 323.007812 183.433594 C 310.289062 161.402344 297.558594 139.371094 284.847656 117.339844 C 284.449219 116.660156 284.058594 115.96875 283.660156 115.28125 C 280.144531 109.109375 276.496094 102.722656 270.453125 97.886719 C 254.636719 85.222656 231.195312 85.199219 215.917969 97.835938 C 200.011719 110.984375 195.859375 133.914062 206.023438 152.351562 C 206.820312 153.820312 207.621094 155.308594 208.40625 156.796875 C 210.976562 161.652344 213.617188 166.691406 217.15625 171.125 C 224.578125 180.425781 225.464844 190.71875 220.058594 204.472656 C 218.496094 208.453125 216.691406 212.347656 214.976562 215.953125 C 214.890625 216.148438 214.804688 216.351562 214.71875 216.546875 C 214.621094 216.375 214.535156 216.199219 214.4375 216.039062 C 206.195312 201.863281 198.007812 187.675781 189.808594 173.496094 L 178.101562 153.246094 C 175.855469 149.363281 173.625 145.488281 171.390625 141.617188 C 165.359375 131.152344 159.121094 120.339844 152.84375 109.757812 C 143.199219 93.484375 128.792969 86.03125 111.25 88.199219 C 95.800781 90.109375 83.296875 98.480469 76.929688 111.179688 C 70.457031 124.082031 71.277344 139.4375 79.1875 153.289062 C 103.65625 196.132812 128.394531 238.867188 147.199219 271.3125 C 155.078125 284.894531 166.425781 293.570312 179.136719 295.75 C 181.261719 296.105469 183.410156 296.300781 185.566406 296.300781 C 196.398438 296.300781 207.554688 291.789062 217.578125 283.246094 C 231.765625 271.140625 242.46875 255.460938 252.253906 232.460938 C 255.339844 237.714844 258.414062 243.085938 261.414062 248.289062 C 266.625 257.359375 272.019531 266.757812 277.574219 275.875 C 285.515625 288.953125 297.859375 295.976562 313.246094 296.203125 L 313.265625 296.203125 C 313.429688 296.203125 313.578125 296.203125 313.75 296.203125 C 334.984375 296.203125 351.523438 282.855469 355.957031 262.085938 C 358.222656 251.46875 356.421875 241.265625 350.445312 230.90625 "/></clipPath><clipPath id="15316cea8a"><path d="M 15.605469 209.933594 L 102.726562 209.933594 L 102.726562 296.351562 L 15.605469 296.351562 Z M 15.605469 209.933594 "/></clipPath><clipPath id="e417275177"><path d="M 59.875 209.996094 C 48.480469 209.554688 37.53125 213.859375 29.058594 222.082031 C 20.472656 230.410156 15.574219 241.683594 15.648438 253.003906 C 15.824219 277.578125 34.347656 296.125 58.753906 296.179688 L 58.828125 296.179688 C 84.300781 296.179688 102.101562 277.417969 102.144531 250.542969 C 102.179688 229.429688 82.8125 210.871094 59.863281 210.007812 "/></clipPath></defs><g id="f793b8d1de"><rect x="0" width="375" y="0" height="374.999991" style="fill:#ffffff;fill-opacity:1;stroke:none;"/><rect x="0" width="375" y="0" height="374.999991" style="fill:#55348b;fill-opacity:1;stroke:none;"/><g clip-rule="nonzero" clip-path="url(#5617e301b6)"><rect x="0" width="375" y="0" height="374.999991" style="fill:#87059d;fill-opacity:1;stroke:none;"/><rect x="0" width="375" y="0" height="374.999991" style="fill:#55348b;fill-opacity:1;stroke:none;"/></g><g clip-rule="nonzero" clip-path="url(#ad3fd0a70c)"><g clip-rule="nonzero" clip-path="url(#a65e185292)"><rect x="0" width="375" y="0" height="374.999991" style="fill:#55348b;fill-opacity:1;stroke:none;"/></g></g><g clip-rule="nonzero" clip-path="url(#d0de015883)"><g clip-rule="nonzero" clip-path="url(#85dae9f4a2)"><rect x="0" width="375" y="0" height="374.999991" style="fill:#ffffff;fill-opacity:1;stroke:none;"/></g></g><g clip-rule="nonzero" clip-path="url(#15316cea8a)"><g clip-rule="nonzero" clip-path="url(#e417275177)"><rect x="0" width="375" y="0" height="374.999991" style="fill:#ffffff;fill-opacity:1;stroke:none;"/></g></g></g></svg>